<?xml version="1.0" encoding="UTF-8" standalone="yes"?>
<svg xmlns="http://www.w3.org/2000/svg" viewBox="0 0 80 80" width="80" height="80" fill="#000000">
  <path d="M 9 17 C 7.9375 17 6.921875 17.421875 6.171875 18.171875 C 5.425781 18.921875 5 19.9375 5 21 L 5 57 C 5 58.0625 5.421875 59.078125 6.171875 59.828125 C 6.921875 60.574219 7.9375 61 9 61 L 71 61 C 72.0625 61 73.078125 60.578125 73.828125 59.828125 C 74.574219 59.078125 75 58.0625 75 57 L 75 21 C 75 19.9375 74.578125 18.921875 73.828125 18.171875 C 73.078125 17.425781 72.0625 17 71 17 Z M 9 19 L 71 19 C 71.53125 19 72.039063 19.210938 72.414063 19.585938 C 72.789063 19.960938 73 20.46875 73 21 L 73 57 C 73 57.53125 72.789063 58.039063 72.414063 58.414063 C 72.039063 58.789063 71.53125 59 71 59 L 9 59 C 8.46875 59 7.960938 58.789063 7.585938 58.414063 C 7.210938 58.039063 7 57.53125 7 57 L 7 21 C 7 20.46875 7.210938 19.960938 7.585938 19.585938 C 7.960938 19.210938 8.46875 19 9 19 Z M 12 21 C 11.449219 21 11 21.449219 11 22 C 11 22.550781 11.449219 23 12 23 C 12.550781 23 13 22.550781 13 22 C 13 21.449219 12.550781 21 12 21 Z M 16 21 C 15.449219 21 15 21.449219 15 22 C 15 22.550781 15.449219 23 16 23 C 16.550781 23 17 22.550781 17 22 C 17 21.449219 16.550781 21 16 21 Z M 20 21 C 19.449219 21 19 21.449219 19 22 C 19 22.550781 19.449219 23 20 23 C 20.550781 23 21 22.550781 21 22 C 21 21.449219 20.550781 21 20 21 Z M 24 21 C 23.449219 21 23 21.449219 23 22 C 23 22.550781 23.449219 23 24 23 C 24.550781 23 25 22.550781 25 22 C 25 21.449219 24.550781 21 24 21 Z M 28 21 C 27.449219 21 27 21.449219 27 22 C 27 22.550781 27.449219 23 28 23 C 28.550781 23 29 22.550781 29 22 C 29 21.449219 28.550781 21 28 21 Z M 32 21 C 31.449219 21 31 21.449219 31 22 C 31 22.550781 31.449219 23 32 23 C 32.550781 23 33 22.550781 33 22 C 33 21.449219 32.550781 21 32 21 Z M 36 21 C 35.449219 21 35 21.449219 35 22 C 35 22.550781 35.449219 23 36 23 C 36.550781 23 37 22.550781 37 22 C 37 21.449219 36.550781 21 36 21 Z M 40 21 C 39.449219 21 39 21.449219 39 22 C 39 22.550781 39.449219 23 40 23 C 40.550781 23 41 22.550781 41 22 C 41 21.449219 40.550781 21 40 21 Z M 44 21 C 43.449219 21 43 21.449219 43 22 C 43 22.550781 43.449219 23 44 23 C 44.550781 23 45 22.550781 45 22 C 45 21.449219 44.550781 21 44 21 Z M 48 21 C 47.449219 21 47 21.449219 47 22 C 47 22.550781 47.449219 23 48 23 C 48.550781 23 49 22.550781 49 22 C 49 21.449219 48.550781 21 48 21 Z M 52 21 C 51.449219 21 51 21.449219 51 22 C 51 22.550781 51.449219 23 52 23 C 52.550781 23 53 22.550781 53 22 C 53 21.449219 52.550781 21 52 21 Z M 56 21 C 55.449219 21 55 21.449219 55 22 C 55 22.550781 55.449219 23 56 23 C 56.550781 23 57 22.550781 57 22 C 57 21.449219 56.550781 21 56 21 Z M 60 21 C 59.449219 21 59 21.449219 59 22 C 59 22.550781 59.449219 23 60 23 C 60.550781 23 61 22.550781 61 22 C 61 21.449219 60.550781 21 60 21 Z M 64 21 C 63.449219 21 63 21.449219 63 22 C 63 22.550781 63.449219 23 64 23 C 64.550781 23 65 22.550781 65 22 C 65 21.449219 64.550781 21 64 21 Z M 68 21 C 67.449219 21 67 21.449219 67 22 C 67 22.550781 67.449219 23 68 23 C 68.550781 23 69 22.550781 69 22 C 69 21.449219 68.550781 21 68 21 Z M 14 27 L 14 51 L 21 51 L 21 38.414063 L 27.5 44.914063 L 34 38.414063 L 34 51 L 41 51 L 41 27 L 34.589844 27 L 34.296875 27.285156 L 27.394531 34.085938 L 20.417969 27 Z M 53 27 L 53 39 L 45.753906 39 L 57 51.496094 L 68.246094 39 L 61 39 L 61 27 Z M 16 29 L 19.582031 29 L 27.375 36.914063 L 35.410156 29 L 39 29 L 39 49 L 36 49 L 36 33.585938 L 27.5 42.085938 L 19 33.585938 L 19 49 L 16 49 Z M 55 29 L 59 29 L 59 41 L 63.753906 41 L 57 48.503906 L 50.246094 41 L 55 41 Z M 12 55 C 11.449219 55 11 55.449219 11 56 C 11 56.550781 11.449219 57 12 57 C 12.550781 57 13 56.550781 13 56 C 13 55.449219 12.550781 55 12 55 Z M 16 55 C 15.449219 55 15 55.449219 15 56 C 15 56.550781 15.449219 57 16 57 C 16.550781 57 17 56.550781 17 56 C 17 55.449219 16.550781 55 16 55 Z M 20 55 C 19.449219 55 19 55.449219 19 56 C 19 56.550781 19.449219 57 20 57 C 20.550781 57 21 56.550781 21 56 C 21 55.449219 20.550781 55 20 55 Z M 24 55 C 23.449219 55 23 55.449219 23 56 C 23 56.550781 23.449219 57 24 57 C 24.550781 57 25 56.550781 25 56 C 25 55.449219 24.550781 55 24 55 Z M 28 55 C 27.449219 55 27 55.449219 27 56 C 27 56.550781 27.449219 57 28 57 C 28.550781 57 29 56.550781 29 56 C 29 55.449219 28.550781 55 28 55 Z M 32 55 C 31.449219 55 31 55.449219 31 56 C 31 56.550781 31.449219 57 32 57 C 32.550781 57 33 56.550781 33 56 C 33 55.449219 32.550781 55 32 55 Z M 36 55 C 35.449219 55 35 55.449219 35 56 C 35 56.550781 35.449219 57 36 57 C 36.550781 57 37 56.550781 37 56 C 37 55.449219 36.550781 55 36 55 Z M 40 55 C 39.449219 55 39 55.449219 39 56 C 39 56.550781 39.449219 57 40 57 C 40.550781 57 41 56.550781 41 56 C 41 55.449219 40.550781 55 40 55 Z M 44 55 C 43.449219 55 43 55.449219 43 56 C 43 56.550781 43.449219 57 44 57 C 44.550781 57 45 56.550781 45 56 C 45 55.449219 44.550781 55 44 55 Z M 48 55 C 47.449219 55 47 55.449219 47 56 C 47 56.550781 47.449219 57 48 57 C 48.550781 57 49 56.550781 49 56 C 49 55.449219 48.550781 55 48 55 Z M 52 55 C 51.449219 55 51 55.449219 51 56 C 51 56.550781 51.449219 57 52 57 C 52.550781 57 53 56.550781 53 56 C 53 55.449219 52.550781 55 52 55 Z M 56 55 C 55.449219 55 55 55.449219 55 56 C 55 56.550781 55.449219 57 56 57 C 56.550781 57 57 56.550781 57 56 C 57 55.449219 56.550781 55 56 55 Z M 60 55 C 59.449219 55 59 55.449219 59 56 C 59 56.550781 59.449219 57 60 57 C 60.550781 57 61 56.550781 61 56 C 61 55.449219 60.550781 55 60 55 Z M 64 55 C 63.449219 55 63 55.449219 63 56 C 63 56.550781 63.449219 57 64 57 C 64.550781 57 65 56.550781 65 56 C 65 55.449219 64.550781 55 64 55 Z M 68 55 C 67.449219 55 67 55.449219 67 56 C 67 56.550781 67.449219 57 68 57 C 68.550781 57 69 56.550781 69 56 C 69 55.449219 68.550781 55 68 55 Z"/>
</svg>
